<svg viewBox="0 0 512 512" width="64" height="64" xmlns="http://www.w3.org/2000/svg">
    <circle cx="256" cy="256" r="256" fill="#10b981" />
    <path fill="#fff"
        d="M256 112c-79.5 0-144 64.5-144 144h-40c0-101.7 82.3-184 184-184s184 82.3 184 184c0 46.7-17.7 89.5-46.8 122.2l-28.7-28.7C373.6 319.4 384 288.5 384 256c0-70.7-57.3-128-128-128z" />
    <path fill="#fff"
        d="M400 256c0 79.5-64.5 144-144 144-33.6 0-64.5-10.4-89.5-28.5l-28.7 28.7C122.5 430.3 186.2 456 256 456c101.7 0 184-82.3 184-184h-40z" />
    <path fill="#fff"
        d="M112 256c0-33.6 10.4-64.5 28.5-89.5l-28.7-28.7C81.7 138.4 56 202.1 56 272c0 101.7 82.3 184 184 184v-40c-79.5 0-144-64.5-144-144z" />
</svg>